<?xml version="1.0"?>
<svg xmlns="http://www.w3.org/2000/svg" id="Capa_1" enable-background="new 0 0 512 512" height="512px" viewBox="0 0 512 512" width="512px" class=""><g><g><circle cx="256" cy="256" fill="#e27266" r="256" data-original="#E27266" class="active-path" style="fill:#1273EB" data-old_color="#e27266"/><path d="m505.001 315.631c-44.066-44.069-111.351-111.344-111.351-111.344l-19.091-11.976-88.604-88.584-172.161 305.546s55.854 55.868 99.079 99.091c14.022 2.379 28.427 3.636 43.127 3.636 120.852 0 222.129-83.748 249.001-196.369z" fill="#c7475a" data-original="#C7475A" class="" style="fill:#04458F" data-old_color="#c7475a"/><g><path d="m265.438 94.933h-132.126c-15.667 0-28.312 12.646-28.312 28.312v265.508c0 15.665 12.646 28.312 28.312 28.312h132.125c15.667 0 28.312-12.647 28.312-28.312v-265.507c.001-15.667-12.645-28.313-28.311-28.313z" fill="#54747f" data-original="#54747F" class=""/><path d="m293.75 123.246v265.508c0 15.665-12.646 28.312-28.312 28.312h-66.062v-322.133h66.062c15.666 0 28.312 12.646 28.312 28.313z" fill="#455e72" data-original="#455E72" class=""/><path d="m274.875 123.246v265.508c0 5.284-4.152 9.438-9.438 9.438h-132.125c-5.286 0-9.438-4.153-9.438-9.438v-265.508c0-5.285 4.152-9.438 9.438-9.438h28.312l18.875 18.875h37.75l18.875-18.875h28.312c5.287 0 9.439 4.152 9.439 9.438z" fill="#e9f2f2" data-original="#E9F2F2"/><path d="m274.875 123.246v265.508c0 5.284-4.152 9.438-9.438 9.438h-66.062v-265.509h18.875l18.875-18.875h28.312c5.286 0 9.438 4.152 9.438 9.438z" fill="#d5e5e5" data-original="#D5E5E5" class=""/><path d="m161.625 113.808h75.5v37.75h-75.5z" fill="#54747f" data-original="#54747F" class=""/><path d="m199.375 113.808h37.75v37.75h-37.75z" fill="#455e72" data-original="#455E72" class=""/><path d="m350.375 274.875v37.75c0 15.612-12.7 28.312-28.312 28.312h-84.938c-15.612 0-28.312-12.7-28.312-28.312v-18.875h-9.438-9.438v18.875c0 10.527 3.586 20.162 9.438 28.021 8.608 11.563 22.26 19.167 37.75 19.167h84.938c26.018 0 47.188-21.17 47.188-47.188v-37.75z" fill="#738c96" data-original="#738C96"/><path d="m237.125 359.812h84.938c26.018 0 47.188-21.17 47.188-47.188v-37.75h-18.875v37.75c0 15.612-12.7 28.312-28.312 28.312h-84.938c-15.612 0-28.312-12.7-28.312-28.312v-18.874h-9.438v46.896c8.607 11.563 22.259 19.166 37.749 19.166z" fill="#54747f" data-original="#54747F" class=""/><path d="m218.25 189.938v18.875h18.875v37.75c0 20.82-16.93 37.75-37.75 37.75s-37.75-16.93-37.75-37.75v-37.75h18.875v-18.875h-37.75v56.625c0 31.225 25.4 56.625 56.625 56.625s56.625-25.401 56.625-56.626v-56.625h-37.75z" fill="#94e5cf" data-original="#94E5CF" class=""/><path d="m256 246.562v-56.625h-37.75v18.875h18.875v37.75c0 20.82-16.93 37.75-37.75 37.75v18.875c31.225.001 56.625-25.4 56.625-56.625z" fill="#7ccbbf" data-original="#7CCBBF" class="" style="fill:#7CCBBF"/><path d="m359.812 284.312c-26.018 0-47.188-21.17-47.188-47.188s21.17-47.188 47.188-47.188 47.188 21.171 47.188 47.189-21.17 47.187-47.188 47.187z" fill="#e9f2f2" data-original="#E9F2F2"/><circle cx="359.812" cy="237.125" fill="#d5e5e5" r="28.312" data-original="#D5E5E5" class=""/><path d="m350.375 227.688h18.875v18.875h-18.875z" fill="#e9f2f2" data-original="#E9F2F2"/></g></g></g> </svg>
